<?xml version="1.0" encoding="UTF-8"?>
<svg id="Layer_2" data-name="Layer 2" xmlns="http://www.w3.org/2000/svg" viewBox="0 0 488.85 698.44">
  <defs>
    <style>
      .cls-1 {
        fill-rule: evenodd;
      }

      .cls-1, .cls-2, .cls-3, .cls-4 {
        stroke-width: 0px;
      }

      .cls-1, .cls-4 {
        fill: #f16426;
      }

      .cls-2 {
        fill: #282526;
      }

      .cls-3 {
        fill: #fff;
      }
    </style>
  </defs>
  <g id="Layer_1-2" data-name="Layer 1">
    <g>
      <circle class="cls-4" cx="244.42" cy="244.42" r="244.42"/>
      <polygon class="cls-1" points="244.2 698.44 442.15 388.26 46.69 388.26 244.2 698.44"/>
      <circle class="cls-3" cx="244.42" cy="237.94" r="190.14"/>
      <g id="logo">
        <path id="Path_1" data-name="Path 1" class="cls-4" d="m132.79,124.74h54.33c17.64-.12,29.3,2.7,42.17,14.37,7.11,5.99,12.36,13.88,15.15,22.75,3.13-8.92,8.68-16.8,16.02-22.75,12.86-11.2,24.78-13.89,41.29-14.37h54.22v54.33c.83,17.4-2.1,30.55-14.43,43.47-5.82,6.57-13.37,11.36-21.8,13.84,8.45,2.64,16,7.57,21.8,14.26,12.09,12.94,14.97,24.53,14.43,43.06v54.04h-54.22c-17.1.18-28.92-2.86-41.87-14.25-7.03-5.75-12.36-13.31-15.44-21.85-2.54,8.46-7.42,16.04-14.08,21.85-12.94,12.17-25.6,15.32-43.23,14.25h-54.34v-54.04c-.48-16.45,2.91-29,14.43-41.86,5.96-7.17,13.82-12.52,22.68-15.45-8.83-2.75-16.7-7.96-22.68-15.02-11.75-12.86-14.31-25.18-14.43-42.29v-54.33Z"/>
        <path id="Path_2" data-name="Path 2" class="cls-3" d="m155.92,147.93h35.17c17.23.16,27.43,1.64,39.64,12.26,6.12,4.95,10.82,11.42,13.64,18.76,3.03-7.38,7.94-13.85,14.23-18.76,12.25-10.23,23.41-12.65,39.03-12.26h35.24v35.33c-.32,13.69-.85,23.68-9,35.33-5.24,8.2-12.99,14.49-22.09,17.94,9.08,3.35,16.83,9.55,22.08,17.67,8.26,11.7,8.95,21.42,9,35.61v35.17h-35.22c-16.17.61-26.7-2.06-38.92-12.26-6.32-4.91-11.26-11.38-14.35-18.76-2.77,7.34-7.43,13.82-13.53,18.76-12.22,10.65-23.08,12.03-39.75,12.14h-35.06v-35.05c-.16-15.3,1.72-23.61,9.94-35.34,5.1-7.89,12.39-14.13,20.98-17.94-8.55-3.62-15.84-9.66-20.98-17.39-8.53-11.82-10.27-21.75-10.1-36l.05-35.22h0Z"/>
        <path id="Path_3" data-name="Path 3" class="cls-2" d="m227.19,262.2c7.73,17.4,8.76,17.14,10.82,17.4,4.12.51,8.76-14.18,11.59-20.1,3.1-6.57,7.22-17.91,11.21-17.91,4.51,0,1.94,22.16,1.42,24.35-.9,4.12-6.7,4.9-6.7,9.41,0,8.24,17.65,7.73,22.94,7.73,5.67,0,23.32.39,23.32-8.25,0-5.8-7.73-3.73-8.12-13.14-.51-11.98-1.29-26.16-1.29-28.09.05-8.24.69-16.47,1.94-24.61,1.29-4.38,7.08-5.41,7.08-10.57,0-8.12-12.88-8.51-18.55-8.51-17.01,0-17.14,3.88-23.71,15.98-4.64,8.5-9.92,24.09-13.91,23.19-5.67-1.29-13.66-22.42-18.17-30.03-3.88-6.57-3.61-9.15-18.68-9.15-10.31,0-22.29,1.8-22.29,9.15,0,5.29,7.34,6.19,8.63,8.89,1.42,2.97,1.94,6.96,1.94,14.69,0,13.86-.73,27.71-2.2,41.49-1.03,10.57-8.76,4.53-8.76,11.86,0,6.7,11.72,7.09,16.24,7.09,5.03,0,18.81-.26,18.81-7.6,0-6.96-8.25-.51-8.25-14.3,0-4.25-1.29-21.26,2.7-21.26,2.32,0,3.74,3.88,4.51,5.54l7.46,16.75Z"/>
      </g>
    </g>
  </g>
</svg>