<svg id="Group_1" data-name="Group 1" xmlns="http://www.w3.org/2000/svg" width="142.216" height="29.553" viewBox="0 0 142.216 29.553">
  <path id="Path_4" data-name="Path 4" d="M186.54,37.076c2.382,5.435,2.7,5.354,3.334,5.435,1.27.161,2.7-4.429,3.572-6.281.953-2.053,2.223-5.6,3.453-5.6,1.389,0,.6,6.925.436,7.609-.278,1.289-2.064,1.53-2.064,2.939,0,2.577,5.438,2.416,7.065,2.416,1.746,0,7.184.121,7.184-2.577,0-1.812-2.381-1.168-2.5-4.106-.159-3.745-.4-8.173-.4-8.777a53.524,53.524,0,0,1,.6-7.69c.4-1.369,2.183-1.69,2.183-3.3,0-2.537-3.969-2.657-5.716-2.657-5.239,0-5.279,1.208-7.3,4.992-1.429,2.657-3.056,7.529-4.287,7.247-1.746-.4-4.207-7-5.6-9.38-1.191-2.054-1.111-2.859-5.756-2.859-3.175,0-6.867.564-6.867,2.859,0,1.65,2.262,1.932,2.659,2.778.437.926.6,2.174.6,4.59a123.873,123.873,0,0,1-.675,12.964c-.318,3.3-2.7,1.409-2.7,3.7,0,2.094,3.612,2.215,5,2.215,1.548,0,5.795-.081,5.795-2.375,0-2.175-2.54-.161-2.54-4.47,0-1.329-.4-6.643.833-6.643.715,0,1.151,1.208,1.389,1.731l2.3,5.234Z" transform="translate(-173.759 -14.166)" fill="#f16426"/>
  <path id="Path_5" data-name="Path 5" d="M322.851,13.275c-2.024,0-6.112.48-6.112,3.339,0,1.973,2.184,2.665,3.772,2.665,1.985,0,6.587-.725,6.587-3.422C327.1,13.723,324.439,13.275,322.851,13.275Zm12.107,0c-2.025,0-6.112.48-6.112,3.339,0,1.973,2.185,2.665,3.772,2.665,1.985,0,6.587-.725,6.587-3.422C339.2,13.723,336.546,13.275,334.958,13.275Zm-10.4,8.535c-.318,0-10.317.121-10.317,2.7,0,2.5,2.419.264,2.706,5.121.018.3.033.635.033,1,0,6.039-.638,12.082,6.9,12.082,3.493,0,5.082-2.415,6-2.415,1.588,0-.434,2.415,2.623,2.415,2.183,0,9.21-.768,9.21-3.506,0-1.933-2.19-.807-2.19-3.222V27.889c0-1.289.083-2.534.083-3.822,0-1.409-.594-2.257-2.023-2.257-1.508,0-9.484.406-9.484,2.781,0,1.691,1.939,1,2.257,3.014a16.341,16.341,0,0,1,.15,2.023c.019.806.009,1.626.009,2.332,0,1.933.4,5.712-2.457,5.712-2.143,0-2.265-2.495-2.265-4.105V23.342C325.79,22.336,325.67,21.81,324.558,21.81Z" transform="translate(-276.808 -13.275)" fill="#f16426" fill-rule="evenodd"/>
  <path id="Path_6" data-name="Path 6" d="M434.748,29.357c0-5.757.516-10.186.516-11.112,0-1.208-.318-2.093-1.667-2.093-.556,0-10.875.845-10.875,4.348,0,2.3,2.342,1.248,2.937,4.228a39.548,39.548,0,0,1,.278,6.4c0,1.973,0,7.006-.516,8.656-.476,1.489-2.183.966-2.183,2.375,0,2.858,5.557,2.657,7.343,2.657,1.707,0,6.549.2,6.549-2.5,0-1.691-1.787-1.007-2.223-2.456a12.063,12.063,0,0,1-.159-2.7V29.357Zm15.774,0c0-5.757.516-10.186.516-11.112,0-1.208-.318-2.093-1.667-2.093-.556,0-10.875.845-10.875,4.348,0,2.3,2.342,1.248,2.937,4.228a39.517,39.517,0,0,1,.278,6.4c0,1.973,0,7.006-.516,8.656-.476,1.489-2.183.966-2.183,2.375,0,2.858,5.556,2.657,7.342,2.657,1.707,0,6.55.2,6.55-2.5,0-1.691-1.786-1.007-2.223-2.456a12.033,12.033,0,0,1-.159-2.7V29.357Z" transform="translate(-356.383 -15.385)" fill="#f16426"/>
  <path id="Path_7" data-name="Path 7" d="M560.578,56.173c1.27,0,2.46-.362,2.46-3.02,0-3.02-2.977-8.294-9.724-8.294A10.883,10.883,0,0,0,542.16,55.569C542.16,60.763,545.851,66,553,66c3.572,0,9.169-2.254,9.169-5.355,0-.765-.714-2.013-1.548-2.013s-2.3,1.811-5.279,1.811c-1.865,0-4.446-1.69-4.446-3.7,0-.685.635-.564,1.072-.564h8.614m-7.5-3.865c-1.032,0-2.381.322-2.381-1.128a2.656,2.656,0,0,1,2.381-2.657,2.346,2.346,0,0,1,2.342,2.576c0,1.45-1.27,1.208-2.342,1.208Z" transform="translate(-443.997 -36.444)" fill="#f16426" fill-rule="evenodd"/>
  <path id="Path_8" data-name="Path 8" d="M629,55.983a20.189,20.189,0,0,1-.436,4.429c-.437,1.409-2.263,1.409-2.263,3.1,0,2.778,5.4,2.7,7.224,2.7,4.366,0,7.859-.2,7.859-2.738,0-2.416-3.017-1.329-3.255-3.1a37.483,37.483,0,0,1-.318-4.429c0-.725-.2-3.422.913-3.422,1.032,0,1.746,2.295,4.326,2.295a4.888,4.888,0,0,0,4.883-4.831,4.361,4.361,0,0,0-4.406-4.67c-3.414,0-4.009,3.18-4.962,3.18-.675,0-.635-.926-.675-1.409-.159-1.369-.2-1.771-1.707-1.771-.357,0-9.645.885-9.645,4.066,0,2.456,2.461.242,2.461,4.187Z" transform="translate(-505.719 -36.777)" fill="#f16426"/>
</svg>
