<svg xmlns="http://www.w3.org/2000/svg" width="69.06" height="69.011" viewBox="0 0 69.06 69.011">
  <g id="logo" transform="translate(0 0)">
    <path id="Path_1" data-name="Path 1" d="M.025,0h16.8c5.454-.036,9.06.834,13.038,4.444a15.121,15.121,0,0,1,4.683,7.033A15.78,15.78,0,0,1,39.5,4.443C43.476.98,47.161.147,52.266,0H69.031V16.8c.258,5.38-.65,9.445-4.463,13.441a14.439,14.439,0,0,1-6.739,4.278,14.73,14.73,0,0,1,6.739,4.408c3.739,4,4.628,7.584,4.463,13.313V68.949H52.266c-5.288.055-8.942-.883-12.945-4.407a15.531,15.531,0,0,1-4.774-6.757,14.509,14.509,0,0,1-4.352,6.757c-4,3.762-7.915,4.738-13.368,4.407H.025V52.24c-.147-5.086.9-8.967,4.463-12.944A15.384,15.384,0,0,1,11.5,34.52a15.07,15.07,0,0,1-7.014-4.645C.854,25.9.062,22.09.025,16.8Z" transform="translate(-0.012 0.002)" fill="#f16426"/>
    <path id="Path_2" data-name="Path 2" d="M14.24,14.248H25.115c5.326.051,8.48.507,12.256,3.79a13.841,13.841,0,0,1,4.217,5.8,14.2,14.2,0,0,1,4.4-5.8c3.787-3.162,7.237-3.91,12.068-3.79H68.951V25.173c-.1,4.233-.263,7.321-2.782,10.925a14.008,14.008,0,0,1-6.829,5.548,13.836,13.836,0,0,1,6.828,5.463c2.555,3.617,2.766,6.622,2.782,11.01V68.993H58.061c-5,.188-8.257-.636-12.034-3.79a14.388,14.388,0,0,1-4.438-5.8,13.677,13.677,0,0,1-4.182,5.8c-3.778,3.293-7.135,3.721-12.291,3.755H14.276V58.12c-.051-4.73.532-7.3,3.072-10.926a14.965,14.965,0,0,1,6.487-5.548,14.648,14.648,0,0,1-6.487-5.377c-2.637-3.656-3.174-6.726-3.124-11.13l.017-10.891Z" transform="translate(-7.074 -7.075)" fill="#fff"/>
    <path id="Path_3" data-name="Path 3" d="M45.393,62.414c2.39,5.379,2.709,5.3,3.346,5.379,1.275.158,2.71-4.383,3.585-6.215.957-2.032,2.231-5.538,3.467-5.538,1.394,0,.6,6.852.438,7.53-.279,1.275-2.071,1.514-2.071,2.909,0,2.549,5.458,2.39,7.092,2.39,1.752,0,7.211.12,7.211-2.55,0-1.792-2.391-1.154-2.51-4.064-.159-3.705-.4-8.088-.4-8.685a52.209,52.209,0,0,1,.6-7.61c.4-1.355,2.19-1.673,2.19-3.267,0-2.51-3.984-2.63-5.737-2.63-5.259,0-5.3,1.2-7.331,4.941-1.435,2.629-3.068,7.45-4.3,7.171-1.753-.4-4.223-6.932-5.617-9.284-1.2-2.031-1.116-2.828-5.777-2.828-3.188,0-6.893.558-6.893,2.828,0,1.635,2.271,1.913,2.669,2.75.438.917.6,2.151.6,4.542a120.625,120.625,0,0,1-.679,12.829c-.318,3.268-2.708,1.4-2.708,3.666,0,2.071,3.625,2.191,5.02,2.191,1.554,0,5.817-.079,5.817-2.35,0-2.152-2.55-.159-2.55-4.422,0-1.315-.4-6.574.836-6.574.717,0,1.156,1.2,1.394,1.713Z" transform="translate(-16.191 -19.91)" fill="#282526"/>
  </g>
</svg>
